<svg width="24" height="24" viewBox="0 0 24 24" fill="none" xmlns="http://www.w3.org/2000/svg" role="img" aria-label="Camera icon placeholder">
  <path d="M5 8.25h14c.83 0 1.5.67 1.5 1.5v7.5c0 .83-.67 1.5-1.5 1.5H5c-.83 0-1.5-.67-1.5-1.5v-7.5c0-.83.67-1.5 1.5-1.5Z" stroke="currentColor" stroke-width="1.8" stroke-linejoin="round"/>
  <path d="M8.25 8.25 9.7 5.75h4.6l1.45 2.5" stroke="currentColor" stroke-width="1.8" stroke-linecap="round" stroke-linejoin="round"/>
  <path d="M9.75 12.35c.1-1.16.94-2.1 2.32-2.1 1.4 0 2.33.82 2.33 1.96 0 .88-.46 1.39-1.18 1.82-.63.38-.9.67-.9 1.35v.12" stroke="currentColor" stroke-width="1.8" stroke-linecap="round" stroke-linejoin="round"/>
  <path d="M12.32 17.15h.01" stroke="currentColor" stroke-width="2.2" stroke-linecap="round"/>
</svg>
